<?xml version="1.0" standalone="no"?>
<!DOCTYPE svg PUBLIC "-//W3C//DTD SVG 1.1//EN" "http://www.w3.org/Graphics/SVG/1.1/DTD/svg11.dtd" >
<svg xmlns="http://www.w3.org/2000/svg" xmlns:xlink="http://www.w3.org/1999/xlink" version="1.1">
<metadata></metadata>
<defs>
<font id="weldlight" horiz-adv-x="1310" >
<font-face units-per-em="2048" ascent="1638" descent="-410" />
<missing-glyph horiz-adv-x="481" />
<glyph unicode="&#xfb01;" horiz-adv-x="1138" d="M58.5 953q-14.5 23 0 46t50.5 23h124v184q0 133 60 202t194 69h64q37 0 52 -22.5t-0.5 -45.5t-53.5 -23h-60q-143 0 -143 -180v-184h473q109 0 109 -90v-877q0 -37 -28 -51.5t-56.5 0.5t-28.5 51v875h-471v-875q0 -38 -28 -52.5t-56.5 1t-28.5 51.5v875h-122 q-36 0 -50.5 23zM791 1403q0 32 22.5 55t54.5 23t55 -23t23 -55t-23 -55t-55 -23t-54.5 23t-22.5 55z" />
<glyph unicode="&#xfb02;" horiz-adv-x="1126" d="M56 953q-12 23 0 46t42 23h123v184q0 134 60 204.5t194 70.5h334q113 0 113 -90v-1336q0 -36 -28 -50.5t-56.5 0t-28.5 50.5v1334h-332q-143 0 -143 -183v-184h198q29 0 41 -23t0 -46t-41 -23h-198v-875q0 -36 -28 -50.5t-56.5 0t-28.5 50.5v875h-123q-30 0 -42 23z" />
<glyph horiz-adv-x="0" />
<glyph horiz-adv-x="0" />
<glyph unicode="&#xd;" horiz-adv-x="440" />
<glyph unicode=" "  horiz-adv-x="481" />
<glyph unicode="&#x09;" horiz-adv-x="481" />
<glyph unicode="&#xa0;" horiz-adv-x="481" />
<glyph unicode="!" horiz-adv-x="493" d="M176 78q0 32 23 55t55 23t55 -23t23 -55t-23 -55t-55 -23t-55 23t-23 55zM190 498v903q0 47 28 66.5t56.5 0t28.5 -66.5v-903q0 -43 -28.5 -61t-56.5 0t-28 61z" />
<glyph unicode="&#x22;" horiz-adv-x="845" d="M246 1100v323q0 40 28 56t56 0t28 -56v-323q0 -35 -28 -49.5t-56 0t-28 49.5zM487 1100v323q0 40 28.5 56t56.5 0t28 -56v-323q0 -26 -17.5 -41t-39 -15t-39 15t-17.5 41z" />
<glyph unicode="#" horiz-adv-x="1566" d="M171.5 425.5q-14.5 24.5 0.5 48.5t51 24h215l64 428h-217q-37 0 -51.5 24t0.5 48t51 24h231l55 364q6 33 31 43.5t45.5 -6t14.5 -49.5l-54 -352h441l55 364q6 31 30.5 41t45 -6t14.5 -47l-53 -352h217q36 0 50.5 -24t0 -48t-50.5 -24l-232 2l-63 -430h233q37 0 51.5 -24 t-0.5 -48.5t-51 -24.5h-247l-54 -354q-6 -35 -30.5 -45t-45 8t-14.5 51l51 338l-440 2l-53 -354q-6 -35 -30.5 -45t-45 8t-14.5 51l51 340h-201q-37 0 -51.5 24.5zM530 498h441l63 428h-440z" />
<glyph unicode="$" horiz-adv-x="1144" d="M68 332q-2 35 23 51.5t52.5 4t32.5 -47.5q13 -116 108 -181.5t228 -78.5l2 579q-68 19 -123 40t-110.5 54t-92.5 72t-60.5 94.5t-23.5 120.5q0 81 33 146.5t90.5 107.5t129.5 67t155 32l2 112q0 36 25 51t50 0.5t25 -51.5v-110q164 -9 281.5 -100.5t138.5 -245.5 q6 -34 -19 -52.5t-53.5 -8.5t-33.5 46q-19 118 -105 184.5t-209 77.5v-553q92 -24 164 -54t137.5 -77t101.5 -116t36 -156q0 -109 -62.5 -191.5t-160.5 -123.5t-216 -43v-166q0 -38 -25 -53t-50 0.5t-25 52.5v166q-84 6 -159 30.5t-137.5 66.5t-102.5 107t-47 146zM217 1042 q0 -187 295 -270v526q-60 -5 -112 -23.5t-93.5 -49t-65.5 -77.5t-24 -106zM616 78q60 2 117.5 19.5t104 49.5t74.5 81.5t28 109.5q0 52 -17.5 94.5t-44.5 71.5t-72.5 54t-87 41t-102.5 34v-555z" />
<glyph unicode="%" horiz-adv-x="1894" d="M160 995q0 79 18.5 146.5t55 120.5t97 83.5t138.5 30.5q104 0 176 -52.5t104.5 -136.5t32.5 -192q0 -173 -82 -277t-239 -104q-78 0 -138 31.5t-94.5 86t-51.5 120.5t-17 143zM252 995q0 -131 50.5 -209.5t158.5 -78.5q119 0 173 78t54 210q0 129 -53.5 209t-165.5 80 q-110 0 -163.5 -78.5t-53.5 -210.5zM610 45l607 1407q17 38 46.5 45t46.5 -17.5t1 -64.5l-606 -1407q-15 -33 -44.5 -38.5t-47.5 17t-3 58.5zM1102 352q0 79 19 146.5t55.5 120.5t97.5 83.5t139 30.5q150 0 230.5 -107t80.5 -274q0 -108 -32 -192t-103.5 -136.5 t-175.5 -52.5q-78 0 -139 30.5t-97.5 83.5t-55.5 120.5t-19 146.5zM1194 352q0 -85 20 -147.5t70.5 -102t128.5 -39.5q112 0 164.5 79t52.5 210t-52.5 210t-164.5 79q-78 0 -128.5 -39.5t-70.5 -102t-20 -147.5z" />
<glyph unicode="&#x26;" horiz-adv-x="1447" d="M166 344q0 111 52 200.5t136 133.5l109 61q-8 7 -21 19t-46.5 50t-59.5 75.5t-47 89t-21 96.5q0 124 87 214.5t235 90.5q142 0 236 -81t94 -216q0 -95 -41.5 -161t-126.5 -115l-144 -82l365 -402q34 57 50.5 132t18.5 123.5t2 142.5q0 42 23 59.5t46.5 -1t23.5 -64.5 q0 -315 -99 -463l156 -168q15 -16 17 -33t-6.5 -28t-21.5 -17t-29.5 -1.5t-29.5 19.5l-139 154q-83 -97 -193 -141.5t-208 -44.5q-176 0 -297 97.5t-121 260.5zM262 342q0 -66 28 -117.5t75 -82t103.5 -45.5t119.5 -15q70 0 125 19t98.5 50.5t106.5 92.5l-394 428l-108 -62 q-75 -45 -114.5 -116t-39.5 -152zM360 1094q0 -29 4.5 -54t16 -50.5t20.5 -42.5t31 -43t33 -38t40 -42t40 -42l157 95q123 76 123 196q0 97 -67 154t-168 57q-95 0 -162.5 -55.5t-67.5 -134.5z" />
<glyph unicode="'" horiz-adv-x="501" d="M195 1100v323q0 40 28 56t56 0t28 -56v-323q0 -35 -28 -49.5t-56 0t-28 49.5z" />
<glyph unicode="(" horiz-adv-x="591" d="M164 674q0 249 45 435.5t135 377.5q20 37 49.5 42.5t40.5 -17.5t-2 -60q-82 -179 -126 -361.5t-44 -418.5q0 -164 25 -310.5t59 -247t92 -235.5q23 -50 -4 -72q-23 -20 -55 5q-20 16 -33 45q-182 419 -182 817z" />
<glyph unicode=")" horiz-adv-x="591" d="M166 -175q-6 23 8 54q58 135 92 235.5t59 247t25 310.5q0 236 -44 418.5t-126 361.5q-13 37 -2 60t40.5 17.5t49.5 -42.5q90 -191 135.5 -378t45.5 -435q0 -396 -183 -817q-23 -54 -62 -58q-29 -3 -38 26z" />
<glyph unicode="*" horiz-adv-x="884" d="M210 1321.5q-1 28.5 23 39t58 -4.5l106 -62v123q0 36 23 51t46 0.5t23 -51.5v-125l107 64q20 10 37.5 10t28 -10t14 -23.5t-5 -29.5t-27.5 -27l-108 -62l108 -63q19 -11 27.5 -27t5 -29.5t-14 -23.5t-28 -10t-37.5 10l-107 64v-125q0 -38 -23 -53t-46 0.5t-23 52.5v123 l-106 -62q-20 -10 -37.5 -10t-28 10t-14 23.5t5 29.5t27.5 27l106 61l-106 64q-33 17 -34 45.5z" />
<glyph unicode="+" horiz-adv-x="1433" d="M169 593.5q-14 24.5 0 48.5t48 24h451v452q0 36 24 51t48 0.5t24 -51.5v-452h453q33 0 46.5 -24t0 -48.5t-46.5 -24.5h-453v-450q0 -33 -24 -46.5t-48 0t-24 46.5v450h-451q-34 0 -48 24.5z" />
<glyph unicode="," horiz-adv-x="440" d="M125 -127l92 277q9 25 26.5 37.5t34.5 11t32.5 -11.5t21 -30t-1.5 -44l-92 -275q-14 -40 -47.5 -46.5t-56 19t-9.5 62.5z" />
<glyph unicode="-" horiz-adv-x="1052" d="M210 593.5q-14 24.5 0 49.5t48 25h535q35 0 49.5 -25t0 -49.5t-49.5 -24.5h-535q-34 0 -48 24.5z" />
<glyph unicode="." horiz-adv-x="497" d="M172 78q0 32 23 55t55 23t55 -23t23 -55t-23 -55t-55 -23t-55 23t-23 55z" />
<glyph unicode="/" horiz-adv-x="796" d="M147 41l416 1313q6 19 18.5 30t26 10t25.5 -8t16.5 -23t-0.5 -36l-416 -1313q-12 -36 -38 -43.5t-42.5 14t-5.5 56.5z" />
<glyph unicode="0" horiz-adv-x="1161" d="M143 535v307q0 93 15 173.5t48.5 151.5t83.5 121.5t124 79.5t166 29q93 0 167 -28.5t124 -78.5t83.5 -121t48.5 -152t15 -175v-307q0 -91 -15 -172t-49 -151.5t-84 -121.5t-123.5 -80.5t-164.5 -29.5q-113 0 -199 44.5t-137.5 122.5t-77 175.5t-25.5 212.5zM256 518 q0 -91 17 -167t53.5 -139.5t101.5 -99.5t154 -36q72 0 128 23.5t91.5 63.5t59 97.5t33 120.5t9.5 137v342q0 93 -16.5 169t-52.5 138.5t-100.5 97.5t-153.5 35q-72 0 -128.5 -23.5t-93 -63t-60 -97t-33 -120t-9.5 -136.5v-342z" />
<glyph unicode="1" horiz-adv-x="811" d="M163.5 1185q3.5 33 41.5 54l237 123q13 5 29 6.5t29.5 -15t13.5 -46.5v-1233q0 -46 -25.5 -65t-51 0t-25.5 65v1140l-160 -75q-40 -14 -66 -0.5t-22.5 46.5z" />
<glyph unicode="2" horiz-adv-x="1206" d="M205 1040q8 91 48.5 161.5t100.5 111t125.5 61.5t134.5 23q83 0 156 -23t130 -66.5t90.5 -113.5t33.5 -158q1 -68 -25.5 -142.5t-75.5 -146.5t-85.5 -117.5t-85.5 -99.5l-381 -430l663 -4q37 0 51.5 -24t-0.5 -48t-51 -24h-743q-39 0 -57 37t10 69l436 492 q62 73 93.5 113.5t67.5 98t51 110.5t15 112q-4 130 -82 200.5t-213 67.5q-128 -3 -205 -72.5t-94 -195.5q-7 -34 -34.5 -46.5t-51.5 3.5t-22 51z" />
<glyph unicode="3" horiz-adv-x="1142" d="M123 313q-2 33 23 50t53 6t34 -45q10 -78 58 -135.5t116.5 -85t149.5 -27.5q145 0 228 75.5t83 219.5q0 151 -82 216.5t-241 65.5h-66q-36 0 -51 24.5t-0.5 48.5t51.5 24h66q140 0 218.5 67t78.5 201q0 139 -76.5 210.5t-214.5 71.5q-116 0 -199 -62t-98 -171 q-6 -37 -35.5 -49t-54.5 6.5t-19 56.5q15 141 132 228.5t274 87.5q184 0 293.5 -101.5t109.5 -281.5q0 -107 -64 -189t-167 -120q124 -36 190 -120t66 -212q0 -185 -116 -289t-306 -104q-109 0 -202.5 37t-157.5 114t-74 182z" />
<glyph unicode="4" horiz-adv-x="1128" d="M105.5 372q-12.5 26 5.5 52l602 917q22 32 57.5 36t62.5 -19.5t27 -61.5v-852h137q37 0 52 -24.5t0 -49t-52 -24.5h-137v-291q0 -37 -28 -52.5t-56 -0.5t-28 53v291h-596q-34 0 -46.5 26zM238 444h510l-5 787z" />
<glyph unicode="5" horiz-adv-x="1159" d="M184 303q-2 33 22.5 48.5t51.5 4t31 -44.5q12 -114 89 -174.5t197 -60.5q306 0 306 362q0 153 -73 246.5t-216 93.5q-101 0 -174.5 -29t-112.5 -104q-16 -26 -42.5 -31t-46 12t-17.5 48l24 657q0 20 13 32.5t32 12.5h623q37 0 52 -26t0 -52t-52 -26h-561l-11 -492 q63 57 127.5 79t155.5 24q125 2 215.5 -57.5t134 -159.5t43.5 -228q0 -214 -107 -336t-313 -122q-162 0 -270.5 85.5t-120.5 237.5z" />
<glyph unicode="6" horiz-adv-x="1110" d="M143 610q0 74 10.5 155.5t32 172t59 171t87.5 146t122 104t158 38.5q124 0 224 -43q28 -13 29.5 -41.5t-19.5 -45.5t-49 -1q-79 34 -185 34q-70 0 -130 -39.5t-100 -101t-69 -137.5t-42.5 -146.5t-14.5 -130.5q61 79 150 121.5t190 42.5q194 0 297.5 -127.5t103.5 -332.5 q0 -130 -48.5 -235.5t-144.5 -169.5t-224 -64q-96 0 -172 34t-125 91.5t-81 139.5t-45.5 171.5t-13.5 193.5zM256 604q0 -88 6.5 -157.5t27.5 -141.5t55.5 -120t94 -78.5t140.5 -30.5q142 0 223.5 109.5t81.5 263.5q0 162 -80 264t-232 102q-109 0 -196 -55t-121 -156z" />
<glyph unicode="7" horiz-adv-x="1138" d="M114 1304q-14 24 0 48t48 24h782q45 0 63.5 -39.5t-8.5 -74.5q-214 -253 -332.5 -533.5t-150.5 -613.5l-6 -64q-3 -23 -17 -38t-31 -17.5t-33 3t-25.5 22.5t-6.5 40l6 54q37 343 160 623.5t336 541.5h-737q-34 0 -48 24z" />
<glyph unicode="8" horiz-adv-x="1153" d="M133 365q0 125 76 214.5t199 127.5q-109 38 -172.5 119.5t-63.5 195.5q0 177 108.5 276t294.5 99q184 0 295 -98t111 -277q0 -114 -65.5 -196.5t-174.5 -120.5q124 -37 201.5 -126.5t77.5 -213.5q0 -187 -122.5 -286t-319.5 -99q-129 0 -227.5 41.5t-158 130t-59.5 213.5 zM246 365q0 -136 94 -212.5t238 -76.5q142 0 234.5 77t92.5 212q0 134 -94.5 213t-235.5 79q-142 0 -235.5 -79t-93.5 -213zM285 1024q0 -122 84 -196t209 -74q127 0 207.5 73t80.5 197q0 119 -82 197.5t-209 78.5q-131 0 -210.5 -74t-79.5 -202z" />
<glyph unicode="9" horiz-adv-x="1110" d="M143 928q0 202 118 335.5t314 133.5q143 0 239 -67t139.5 -184t43.5 -280q0 -449 -111.5 -667.5t-357.5 -218.5q-118 0 -223 45q-27 9 -28.5 37t19.5 46t48 3q82 -35 184 -35q88 0 158 48.5t112.5 128.5t64.5 177t22 201q-63 -82 -137 -122t-173 -40q-107 0 -190.5 36 t-135.5 99.5t-79 145.5t-27 178zM256 928q0 -25 2 -51t10 -63.5t21 -70.5t37.5 -67.5t57 -59t82 -40t109.5 -15.5q107 0 191.5 55.5t118.5 157.5q1 124 -6.5 208t-27 148t-56 99.5t-89.5 53t-131 17.5q-97 0 -171 -53t-111 -137t-37 -182z" />
<glyph unicode=":" horiz-adv-x="491" d="M172 78q0 32 23 55t55 23t55 -23t23 -55t-23 -55t-55 -23t-55 23t-23 55zM172 805q0 32 23 55t55 23t55 -23t23 -55t-23 -55t-55 -23t-55 23t-23 55z" />
<glyph unicode=";" horiz-adv-x="440" d="M125 -127l92 277q9 25 26.5 37.5t34.5 11t32.5 -11.5t21 -30t-1.5 -44l-92 -275q-14 -40 -47.5 -46.5t-56 19t-9.5 62.5zM193 805q0 32 22.5 55t54.5 23t55 -23t23 -55t-23 -55t-55 -23t-54.5 23t-22.5 55z" />
<glyph unicode="&#x3c;" horiz-adv-x="989" d="M137 596q-30 27 2 55l596 596q25 25 52.5 20.5t32 -28t-18.5 -51.5l-565 -565l571 -572q29 -30 16 -60q-13 -28 -45 -20q-20 5 -41 27z" />
<glyph unicode="=" horiz-adv-x="1437" d="M251 300q-13 24 0 48.5t44 24.5h848q31 0 44 -24.5t0 -48.5t-44 -24h-848q-31 0 -44 24zM251 786q-13 24 0 48t44 24h848q31 0 44 -24t0 -48t-44 -24h-848q-31 0 -44 24z" />
<glyph unicode="&#x3e;" horiz-adv-x="991" d="M166 19q4 17 18 32l572 572l-566 565q-25 26 -18 51.5t32 28t52 -20.5l596 -596q32 -28 2 -55l-600 -598q-40 -41 -71 -24q-24 14 -17 45z" />
<glyph unicode="?" horiz-adv-x="993" d="M123 1053q13 157 121.5 248.5t275.5 91.5q151 0 261 -94t110 -244q0 -203 -195 -328q-97 -60 -124 -112.5t-27 -170.5q0 -37 -23.5 -51.5t-47.5 0.5t-25 51q0 111 46 200.5t160 168.5q133 89 133 238q0 115 -73.5 181t-194.5 66q-128 0 -198 -60t-97 -185q-8 -38 -34 -52 t-48 1.5t-20 50.5zM414 78q0 32 23 55t55 23t54.5 -23t22.5 -55t-22.5 -55t-54.5 -23t-55 23t-23 55z" />
<glyph unicode="@" horiz-adv-x="1859" d="M176 483q11 264 114.5 466t285 313.5t415.5 111.5q366 0 554 -226.5t171 -631.5q-5 -104 -33.5 -194t-77.5 -160.5t-125 -111t-171 -40.5q-74 0 -125 49t-64 134q-44 -87 -123 -135t-172 -48q-123 0 -187.5 114.5t-45.5 299.5q23 243 133 386.5t270 143.5q84 0 138 -22.5 t124 -79.5l-47 -543q-20 -217 119 -217q128 0 209 117.5t92 306.5q19 370 -143.5 572t-499.5 202q-307 0 -503.5 -221.5t-215.5 -585.5q-12 -239 61 -419.5t224 -279.5t360 -99q156 0 277 57q37 13 51 -20t-16 -52q-57 -30 -146.5 -48.5t-169.5 -18.5q-358 0 -555 235 t-178 645zM696 424q-17 -149 23.5 -234.5t130.5 -85.5q183 0 264 189l45 528q-59 47 -149 47q-130 0 -212 -113t-102 -331z" />
<glyph unicode="A" horiz-adv-x="1245" d="M76 70l475 1253q9 30 41 42q16 6 32 6t31 -6q31 -12 41 -42l473 -1253q14 -32 -7.5 -54t-52.5 -18t-42 35l-129 348h-631l-129 -348q-12 -31 -42.5 -35.5t-51.5 17.5t-8 55zM344 481h557l-278 746z" />
<glyph unicode="B" horiz-adv-x="1222" d="M205 43v1284q0 19 13.5 33t33.5 14h354q455 0 455 -362q0 -110 -59 -187t-164 -108q130 -26 206 -116.5t76 -221.5q0 -187 -121.5 -285t-318.5 -98h-428q-20 0 -33.5 13.5t-13.5 33.5zM317 92h363q147 0 237.5 72.5t90.5 212.5q0 135 -84.5 208.5t-225.5 73.5h-381v-567z M317 756h318q144 0 227.5 63t83.5 197q0 260 -340 260h-289v-520z" />
<glyph unicode="C" horiz-adv-x="1204" d="M123 692q0 338 128 519.5t384 181.5q197 0 323 -95.5t160 -287.5q6 -31 -17 -48.5t-51 -9.5t-36 39q-42 156 -132 230.5t-247 74.5q-209 0 -304 -153.5t-95 -450.5q0 -307 94.5 -462.5t304.5 -155.5q156 0 243.5 73t135.5 234q9 29 37 35t50 -13.5t15 -52.5 q-37 -188 -161 -280.5t-320 -92.5q-512 0 -512 715z" />
<glyph unicode="D" horiz-adv-x="1288" d="M205 43v1284q0 19 13.5 33t33.5 14h352q278 0 430 -176t152 -510q0 -339 -152 -515.5t-430 -176.5h-352q-20 0 -33.5 13.5t-13.5 33.5zM317 92h287q224 0 346.5 151.5t122.5 442.5q0 287 -122.5 438.5t-346.5 151.5h-287v-1184z" />
<glyph unicode="E" horiz-adv-x="1148" d="M205 47v1280q0 19 13.5 33t33.5 14h741q31 0 44 -24.5t0 -49t-44 -24.5h-676v-516h584q36 0 50.5 -24t0 -48t-50.5 -24h-584v-568h680q31 0 44 -24t0 -48t-44 -24h-745q-20 0 -33.5 13.5t-13.5 33.5z" />
<glyph unicode="F" horiz-adv-x="1114" d="M205 57v1270q0 19 13.5 33t33.5 14h752q37 0 52 -24.5t0 -49t-52 -24.5h-687v-537h590q37 0 51.5 -24t-0.5 -48t-51 -24h-590v-586q0 -37 -28 -52t-56 0t-28 52z" />
<glyph unicode="G" d="M164 702q0 691 524 691q189 0 315.5 -78t161.5 -244q5 -23 -2.5 -42t-21.5 -26.5t-30 -8t-30 12t-20 35.5q-37 136 -130.5 195t-242.5 59q-213 0 -312.5 -147t-99.5 -447q0 -321 105 -474.5t330 -153.5q109 0 213 28t151 93v358h-287q-33 0 -46.5 24t0 48t46.5 24h338 q24 0 43 -15t19 -42v-432q-43 -63 -129.5 -106t-174 -60t-173.5 -17q-547 0 -547 725z" />
<glyph unicode="H" horiz-adv-x="1325" d="M205 63v1248q0 31 17.5 49t38.5 18t38.5 -18t17.5 -49v-584h691v584q0 31 17.5 49t38.5 18t38.5 -18t17.5 -49v-1248q0 -40 -28 -56t-56 0t-28 56v568h-691v-568q0 -40 -28 -56t-56 0t-28 56z" />
<glyph unicode="I" horiz-adv-x="522" d="M205 63v1246q0 31 18 49t39 18t39 -18t18 -49v-1246q0 -31 -18 -49t-39 -18t-39 18t-18 49z" />
<glyph unicode="J" horiz-adv-x="1042" d="M31 377q0 43 27 61t54 0t27 -61q0 -148 78 -223.5t227 -75.5q128 0 208.5 89t80.5 226v918q0 31 18 49t39.5 18t39.5 -18t18 -49v-920q0 -184 -111 -296.5t-293 -112.5q-196 0 -304.5 100t-108.5 295z" />
<glyph unicode="K" horiz-adv-x="1204" d="M205 66v1241q0 31 17.5 49t38.5 18t38.5 -18t17.5 -49v-754l676 786q31 36 63 36q9 0 17 -3q32 -10 32 -45q0 -27 -26 -55l-366 -418l426 -756q13 -24 12 -46t-14.5 -35t-30.5 -18t-37 5t-33 33l-407 725l-312 -352v-344q0 -40 -28 -56t-56 0t-28 56z" />
<glyph unicode="L" horiz-adv-x="1046" d="M205 47v1272q0 36 28 51t56 0.5t28 -51.5v-1225h633q36 0 50.5 -24t0 -48t-50.5 -24l-698 2q-23 0 -35 13.5t-12 33.5z" />
<glyph unicode="M" horiz-adv-x="1726" d="M205 70v1218q0 43 35 69q26 20 57 20q10 -1 20 -3q42 -8 60 -51l483 -1157l490 1157q17 41 59 51q12 3 23 2q28 0 54 -18q36 -24 36 -70v-1218q0 -31 -17.5 -49.5t-39 -19t-39 17.5t-17.5 51l10 1142l-501 -1175q-17 -37 -55.5 -37t-55.5 37l-500 1169l10 -1136 q0 -45 -28 -63.5t-56 0.5t-28 63z" />
<glyph unicode="N" horiz-adv-x="1423" d="M205 63v1242q0 32 26.5 52t59 17.5t49.5 -28.5l764 -1149v1114q1 25 12.5 42t27.5 21t32 0t27 -21t11 -42v-1237q0 -37 -24.5 -59t-56 -17t-50.5 37l-766 1149v-1121q0 -31 -17.5 -49t-38.5 -18t-38.5 18t-17.5 49z" />
<glyph unicode="O" d="M119 694q0 158 30 283.5t93.5 221.5t169.5 148t250 52q530 0 530 -705q0 -362 -131.5 -537t-398.5 -175q-278 0 -410.5 172.5t-132.5 539.5zM236 694q0 -308 105 -460t321 -152q215 0 314 148.5t99 463.5q0 104 -11 189.5t-40 164.5t-74.5 132.5t-118.5 85.5t-169 32 t-170 -32t-122 -86.5t-78.5 -133t-43 -164.5t-12.5 -188z" />
<glyph unicode="P" horiz-adv-x="1132" d="M102 66v1265q0 19 14 32t34 13h425q206 0 330.5 -102.5t124.5 -298.5t-124.5 -300t-330.5 -104h-360v-505q0 -31 -17.5 -49t-39 -18t-39 18t-17.5 49zM215 668h360q159 0 251 76.5t92 228.5t-92 229.5t-251 77.5h-360v-612z" />
<glyph unicode="Q" horiz-adv-x="1312" d="M119 688q0 158 30 283.5t93.5 221.5t169.5 148t250 52q530 0 530 -705q0 -396 -166 -571l172 -195q15 -16 16 -35t-9 -33t-24.5 -22.5t-33 -5t-33.5 19.5l-178 197q-112 -68 -274 -68q-278 0 -410.5 172.5t-132.5 540.5zM236 690q0 -309 105 -461.5t321 -152.5 t314.5 148.5t98.5 465.5q0 104 -11 189t-40 164t-74.5 132.5t-118.5 85t-169 31.5t-170 -32t-122 -86t-78.5 -132.5t-43 -164t-12.5 -187.5z" />
<glyph unicode="R" horiz-adv-x="1230" d="M205 63v1266q0 20 13.5 33.5t33.5 13.5h420q101 0 182.5 -22t143.5 -67t96 -119t34 -173q0 -118 -74 -209.5t-192 -130.5l248 -563q8 -21 8 -39t-8 -32q-18 -28 -49.5 -21.5t-50.5 47.5l-244 543q-14 33 -49 33h-400v-560q0 -31 -17.5 -49t-38.5 -18t-38.5 18t-17.5 49z M317 719h340q77 0 139.5 14.5t113 45.5t78.5 86t28 130q0 285 -344 285h-355v-561z" />
<glyph unicode="S" horiz-adv-x="1200" d="M152 246q5 1 10 1q30 0 71 -30q158 -133 361 -133q99 0 172.5 25.5t112 67.5t56 86.5t17.5 92.5q0 64 -28 112.5t-75.5 79t-109 54t-129.5 42t-135.5 38.5t-129 48t-109 65t-75.5 96t-28 135q0 109 60.5 193t162.5 128t226 44q247 0 407 -138q37 -32 37 -65v-7 q-4 -35 -40 -39q-3 0 -6 -1q-32 0 -73 30q-133 113 -332 113q-137 0 -228 -71t-91 -181q0 -56 28 -98t75.5 -69t109 -48t129.5 -39.5t135.5 -39.5t129 -51.5t109 -71.5t75.5 -104.5t28 -145.5q0 -56 -14.5 -108.5t-50.5 -104t-89.5 -90t-138.5 -62t-192 -23.5 q-261 0 -438 156q-35 31 -35 67q1 39 35 46z" />
<glyph unicode="T" horiz-adv-x="1122" d="M33.5 1302q-13.5 24 0 48t46.5 24h964q36 0 50.5 -24t0 -48t-50.5 -24h-426v-1212q0 -43 -28 -61t-56 0t-28 61v1212h-426q-33 0 -46.5 24z" />
<glyph unicode="U" horiz-adv-x="1331" d="M195 442v877q0 34 17 53.5t37 19.5t37 -19.5t17 -53.5v-875q0 -169 94.5 -268.5t264.5 -99.5q173 0 270.5 97.5t97.5 270.5v877q0 44 27 62.5t53.5 0t26.5 -62.5v-879q0 -221 -126 -341.5t-349 -120.5q-217 0 -342 123t-125 339z" />
<glyph unicode="V" horiz-adv-x="1249" d="M88 1298q-7 18 -7 34q1 19 11 35q20 28 52.5 21.5t50.5 -49.5l428 -1198l434 1198q11 34 43 38t54.5 -20.5t8.5 -58.5l-465 -1249q-21 -47 -71 -49h-5q-47 0 -69 49z" />
<glyph unicode="W" horiz-adv-x="1765" d="M66 1298q-3 11 -3 21q0 31 28 50q31 21 58 2q16 -10 21 -32l299 -1179l319 1124q11 39 38 61t56.5 22.5t57 -21t39.5 -62.5l321 -1124l299 1179q10 39 46 39q35 0 52 -31q11 -22 5 -49l-334 -1251q-8 -30 -39 -40t-61.5 3.5t-38.5 42.5l-346 1172l-344 -1172 q-10 -30 -41 -43.5t-61 -3t-38 40.5z" />
<glyph unicode="X" horiz-adv-x="1153" d="M90.5 27q-13.5 24 1.5 53l420 618l-399 590q-9 15 -7.5 32t13.5 30t26.5 20.5t32 3t29.5 -21.5l368 -564l373 564q20 29 53.5 25t46 -29.5t-5.5 -59.5l-397 -590l414 -610q21 -30 4 -59t-46.5 -31t-51.5 27l-387 581l-388 -583q-20 -28 -53 -24t-46.5 28z" />
<glyph unicode="Y" horiz-adv-x="1181" d="M88 1347q14 27 49 26t56 -38l397 -723l399 723q12 23 31.5 33t36 6t29.5 -15.5t13.5 -33t-12.5 -45.5l-442 -772v-445q0 -31 -17.5 -49t-39 -18t-39 18t-17.5 49v445l-438 772q-11 23 -11 42q0 14 5 25z" />
<glyph unicode="Z" horiz-adv-x="1212" d="M115 34q-6 13 -6 27q0 21 16 43l799 1176h-734q-35 0 -49.5 24t0 48t49.5 24h809q45 0 59 -32q6 -13 5 -26q0 -19 -12 -40l-803 -1182h796q36 0 50.5 -24t0 -48t-50.5 -24h-864q-49 0 -65 34z" />
<glyph unicode="[" horiz-adv-x="546" d="M102 -152v1635q0 48 21.5 69t71.5 21h151q37 0 51.5 -23t-1 -46t-52.5 -23h-149v-1631h149q37 0 52.5 -23t1 -46t-51.5 -23h-151q-50 0 -71.5 21t-21.5 69z" />
<glyph unicode="\" horiz-adv-x="796" d="M146.5 1363q4.5 16 16.5 23t25.5 8t26 -10t18.5 -30l416 -1313q6 -22 -3 -40t-24.5 -24t-33 3t-25.5 34l-416 1313q-5 20 -0.5 36z" />
<glyph unicode="]" horiz-adv-x="546" d="M108.5 -219q-14.5 23 1 46t52.5 23h149v1631h-149q-37 0 -52.5 23t-1 46t51.5 23h151q50 0 71 -21t21 -69v-1635q0 -48 -21 -69t-71 -21h-151q-37 0 -51.5 23z" />
<glyph unicode="^" horiz-adv-x="1050" d="M142 1072q-4 24 20 52l338 340q28 28 55 -2l336 -338q25 -25 20 -52t-29 -31.5t-51 18.5l-305 307l-305 -307q-23 -23 -49 -17t-30 30z" />
<glyph unicode="_" horiz-adv-x="1128" d="M96 24q-13 24 0.5 48t44.5 24h848q30 0 42 -24t0 -48t-42 -24h-848q-32 0 -45 24z" />
<glyph unicode="`" horiz-adv-x="626" d="M99.5 1413.5q-5.5 28.5 16.5 48t56 8.5l309 -104q34 -14 41 -44t-15 -49t-58 -5l-310 106q-34 11 -39.5 39.5z" />
<glyph unicode="a" horiz-adv-x="1017" d="M113 268q0 170 108 243t318 73h254v125q0 116 -75 175.5t-194 59.5q-109 0 -173.5 -38.5t-98.5 -121.5q-15 -35 -43 -44t-47.5 11.5t-11.5 57.5q28 118 126 174.5t248 56.5q171 0 275 -84.5t104 -246.5v-539q0 -19 4 -47.5t6 -47.5t0 -37.5t-15 -28t-38 -9.5 q-22 0 -36.5 14t-20.5 41t-8 51t-2 60q-63 -92 -158.5 -141.5t-206.5 -49.5q-145 0 -230 74.5t-85 218.5zM225 268q0 -94 61 -143t154 -49q113 0 209 54.5t144 152.5v215h-254q-62 0 -116 -12.5t-99.5 -39t-72 -72t-26.5 -106.5z" />
<glyph unicode="b" horiz-adv-x="1138" d="M203 49v1360q0 37 28 54.5t56 2.5t28 -57v-547q108 178 320 178q86 0 154.5 -31.5t112.5 -83.5t73 -125t41 -151t12 -166q0 -101 -23.5 -189.5t-69.5 -159.5t-122.5 -112.5t-175.5 -41.5q-222 0 -324 174l-10 -109q-2 -31 -27 -43t-49 2t-24 45zM315 270 q41 -97 118 -145.5t183 -48.5q81 0 140 33t92.5 91.5t49 128.5t15.5 154q0 71 -8 133.5t-29 124t-53.5 105.5t-86 71t-122.5 27q-222 0 -299 -209v-465z" />
<glyph unicode="c" horiz-adv-x="1077" d="M113 510q0 239 118.5 382.5t333.5 143.5q157 0 258.5 -66.5t137.5 -187.5q11 -34 -5 -55t-41 -15t-38 38q-76 198 -310 198q-71 0 -127 -20t-92 -56t-60.5 -78.5t-36.5 -95t-17 -96.5t-5 -92q0 -37 2.5 -72t11 -81t22.5 -84.5t40 -77.5t60.5 -66t86.5 -44t115 -17 q234 0 310 198q13 32 38 38t41 -15.5t5 -55.5q-36 -120 -137.5 -186.5t-258.5 -66.5q-226 0 -339 136t-113 394z" />
<glyph unicode="d" horiz-adv-x="1107" d="M123 502q0 106 21.5 199t66.5 170.5t123.5 123t181.5 45.5q204 0 315 -172v549q0 31 17.5 49t39 18t39 -18t17.5 -49v-1366q0 -34 -25 -48.5t-51 -1.5t-28 46l-6 100q-103 -167 -320 -167q-104 0 -182 43t-122.5 117.5t-65.5 165t-21 196.5zM236 502q0 -426 299 -426 q208 0 296 186v483q-44 100 -115 149.5t-179 49.5q-82 0 -142.5 -38.5t-94 -103.5t-49 -140t-15.5 -160z" />
<glyph unicode="e" horiz-adv-x="1040" d="M102 532q0 133 51 247.5t151.5 187.5t230.5 73q199 0 301 -123t102 -333q0 -26 -6 -42t-19.5 -23t-26 -9t-34.5 -2h-637q0 -121 37 -218.5t114 -157.5t183 -60q159 0 270 80q21 15 38.5 11t28 -15.5t9 -30.5t-17.5 -35q-123 -107 -328 -107q-203 0 -325 150.5t-122 406.5 zM221 604h604q0 162 -75 251t-215 89q-129 0 -215 -101t-99 -239z" />
<glyph unicode="f" horiz-adv-x="647" d="M56 953q-12 23 0 46t42 23h123v186q0 133 60 202t194 69h64q37 0 52 -22.5t-0.5 -45t-53.5 -22.5h-60q-143 0 -143 -181v-186h198q29 0 41 -23t0 -46t-41 -23h-198v-864q0 -31 -17.5 -49t-39 -18t-39 18t-17.5 49v864h-123q-30 0 -42 23z" />
<glyph unicode="g" horiz-adv-x="1130" d="M143 504q0 84 13.5 160t44.5 146t77 121t115.5 81t155.5 30q201 0 309 -182l10 117q2 31 26.5 43.5t48.5 -1t24 -44.5v-1043q0 -179 -104.5 -262.5t-307.5 -83.5q-143 0 -262 49q-34 14 -38 42.5t19.5 46t55.5 4.5q98 -39 225 -39q155 0 227 56t72 187v209 q-102 -159 -307 -159q-107 0 -187.5 43t-126.5 117.5t-68 165t-22 196.5zM258 504q0 -426 289 -426q221 0 307 188v475q-43 102 -116.5 153.5t-188.5 51.5q-78 0 -136.5 -38.5t-91 -103.5t-48 -140.5t-15.5 -159.5z" />
<glyph unicode="h" horiz-adv-x="1167" d="M203 57v1362q0 35 28 49.5t56 0t28 -49.5v-571q107 194 336 194q179 0 256.5 -107.5t77.5 -303.5v-574q0 -26 -17.5 -41t-39 -15t-39 15t-17.5 41v576q0 313 -247 313q-111 0 -191 -58.5t-119 -164.5v-666q0 -35 -28 -49.5t-56 0t-28 49.5z" />
<glyph unicode="i" horiz-adv-x="493" d="M164 1407q0 32 23 55t55 23t54.5 -23t22.5 -55t-22.5 -55t-54.5 -23t-55 23t-23 55zM184 74v903q0 42 26.5 59.5t53.5 0.5t27 -60v-903q0 -48 -26.5 -67.5t-53.5 0.5t-27 67z" />
<glyph unicode="j" horiz-adv-x="583" d="M-9.5 -352q-10.5 30 11.5 51q14 14 36 14q11 0 25 -4q49 -13 83 -13q35 0 54 14q38 29 38 140l-2 1129q0 38 28 54t56 1t28 -53v-1131q0 -169 -72 -226q-42 -33 -113 -33q-54 0 -124 18q-38 9 -48.5 39zM219 1409q0 32 23 55t55 23t55 -23t23 -55t-23 -55t-55 -23t-55 23 t-23 55z" />
<glyph unicode="k" horiz-adv-x="1028" d="M203 63v1344q0 31 17.5 49t38.5 18t38.5 -18t17.5 -49v-952l484 542q30 30 59 30l5 -1q33 -2 37 -29q1 -4 0 -8q0 -24 -21 -53l-287 -324l336 -520q11 -19 11.5 -38.5t-11 -32.5t-26 -19.5t-33 1t-31.5 28.5l-316 501l-207 -227v-242q0 -31 -17.5 -49t-38.5 -18t-38.5 18 t-17.5 49z" />
<glyph unicode="l" horiz-adv-x="487" d="M184 57v1360q0 28 17 44.5t37.5 16.5t37.5 -16.5t17 -44.5v-1360q0 -28 -17 -44.5t-37.5 -16.5t-37.5 16.5t-17 44.5z" />
<glyph unicode="m" horiz-adv-x="1757" d="M164 57v914q0 39 26 54.5t52 0.5t26 -51v-121q103 188 334 188q242 0 309 -229q98 229 340 229q76 0 135 -22.5t97.5 -61.5t63.5 -95t35.5 -119t10.5 -138v-549q0 -37 -28.5 -52t-57 0t-28.5 52v549q0 74 -11.5 131.5t-38.5 106.5t-78 75.5t-124 26.5q-137 0 -214 -96 t-77 -244v-549q0 -37 -29 -52t-57.5 0t-28.5 52v549q0 340 -254 340q-229 0 -288 -225v-664q0 -37 -28.5 -52t-57.5 0t-29 52z" />
<glyph unicode="n" horiz-adv-x="1171" d="M205 57v914q0 36 24.5 51t50 1t27.5 -48l8 -131q51 98 136 148t196 50q183 0 260.5 -108.5t77.5 -310.5v-566q0 -26 -18 -41t-39.5 -15t-39.5 15t-18 41v566q0 158 -54.5 240.5t-194.5 82.5q-228 0 -302 -231v-658q0 -35 -28.5 -49.5t-57 0t-28.5 49.5z" />
<glyph unicode="o" horiz-adv-x="1083" d="M92 510q0 117 26 212t79 168t142 113.5t208 40.5q116 0 203 -40.5t139 -113.5t77 -168t25 -212q0 -262 -111.5 -398.5t-332.5 -136.5q-224 0 -339.5 139.5t-115.5 395.5zM209 510q0 -208 86 -325t252 -117q165 0 247.5 116t82.5 326q0 70 -10.5 132.5t-34.5 120t-61 99 t-94.5 66t-129.5 24.5q-87 0 -153.5 -37t-106 -100t-59 -140.5t-19.5 -164.5z" />
<glyph unicode="p" horiz-adv-x="1142" d="M203 -338v1311q0 36 24 51.5t49 2t27 -49.5l10 -113q104 178 322 178q83 0 150 -29.5t112 -80t74.5 -122t43 -153t13.5 -174.5q0 -101 -23.5 -189.5t-69.5 -159.5t-122.5 -112.5t-175.5 -41.5q-218 0 -322 157v-475q0 -35 -17.5 -54.5t-38.5 -19t-38.5 20t-17.5 53.5z M315 258q84 -182 295 -182q81 0 141 33.5t94.5 92t51 129.5t16.5 154q0 93 -16 173.5t-48.5 146.5t-89 103.5t-130.5 37.5q-232 0 -314 -196v-492z" />
<glyph unicode="q" horiz-adv-x="1128" d="M111 483v21q0 106 21.5 199t66.5 170.5t123.5 123t181.5 45.5q207 0 313 -170l8 105q2 33 27 46t49.5 -1.5t24.5 -48.5v-1311q0 -31 -17.5 -49t-39 -18t-39 18t-17.5 49v473q-105 -155 -311 -155q-80 0 -146 27.5t-111 74t-75.5 111t-44.5 137.5t-14 153zM223 483 q0 -65 9.5 -123t32 -110.5t56.5 -90.5t85.5 -60.5t115.5 -22.5q203 0 291 178v502q-85 190 -289 190q-82 0 -142.5 -38.5t-94 -103.5t-49 -140t-15.5 -160v-21z" />
<glyph unicode="r" horiz-adv-x="731" d="M164 63v908q0 38 24.5 54t50 1.5t27.5 -51.5l10 -133q48 102 114 151q61 45 170 45h18q38 -1 53.5 -25.5t0 -48.5t-53.5 -24q-63 0 -116 -26t-86.5 -66.5t-56.5 -90.5t-33 -96t-10 -86v-512q0 -31 -17.5 -49t-38.5 -18t-38.5 18t-17.5 49z" />
<glyph unicode="s" horiz-adv-x="958" d="M113 758q0 121 95.5 201.5t258.5 80.5q173 0 297 -94q29 -23 26 -53q-2 -29 -28 -37q-6 -2 -13 -2q-21 0 -47 16q-100 76 -235 76q-113 0 -177.5 -52t-64.5 -132q0 -52 34 -87t89 -54.5t121 -36t132.5 -38t121.5 -52.5t89 -88t34 -136q0 -130 -97 -214.5t-276 -84.5 q-96 0 -186 30t-137 75q-22 21 -26.5 46t8 39t34 16.5t51.5 -21.5q107 -90 258 -90q122 0 191 56.5t69 147.5q0 56 -34.5 95t-89 60t-121 38t-133 37.5t-121 49t-89 81.5t-34.5 127z" />
<glyph unicode="t" horiz-adv-x="677" d="M107.5 997.5q14.5 22.5 50.5 22.5h78l12 172q2 38 27 53t49 -1t24 -54v-170h139q35 0 49.5 -22.5t0 -45t-49.5 -22.5h-141v-666q0 -112 37 -140q19 -15 55 -14q34 0 82 13q25 6 43.5 0.5t25.5 -20t6.5 -30t-14 -30t-36.5 -20.5q-70 -18 -124 -18q-71 1 -113 33 q-72 58 -72 226v666h-78q-35 0 -50 22.5t-0.5 45z" />
<glyph unicode="u" horiz-adv-x="1112" d="M164 422v543q0 47 28 66.5t56 0t28 -66.5v-539q0 -64 4.5 -111t19 -94.5t39.5 -77.5t68 -48.5t103 -18.5q129 0 226.5 78.5t97.5 197.5v613q0 36 18 56.5t39 20.5t39 -20.5t18 -56.5v-906q0 -37 -25 -53t-51 -2t-28 51l-6 111q-102 -186 -328 -186q-346 0 -346 442z" />
<glyph unicode="v" horiz-adv-x="991" d="M84 995.5q3 21.5 17 32t30.5 12.5t34 -12t27.5 -41l303 -835l305 833q17 45 49 55q34 9 52 -19q10 -15 9 -34q0 -18 -8 -39l-346 -907q-15 -41 -61.5 -41t-61.5 41l-344 907q-9 26 -6 47.5z" />
<glyph unicode="w" horiz-adv-x="1533" d="M98 969q-6 16 -6 30q0 19 12 33q20 26 50 20.5t43 -44.5l231 -844l289 842q14 38 51 39h2q35 0 49 -37l295 -844l227 842q9 34 38 39t49.5 -18.5t9.5 -57.5l-269 -928q-11 -37 -57 -38h-2q-44 0 -57 38l-285 795l-283 -795q-14 -39 -59 -41h-3q-42 0 -56 41z" />
<glyph unicode="x" horiz-adv-x="995" d="M128.5 32q-12.5 25 4.5 56l301 434l-287 416q-20 27 -20 51q-1 11 3 21q12 34 44.5 32t63.5 -43l258 -393l262 393q17 26 38.5 38t38 7.5t27.5 -17.5t8 -37.5t-22 -51.5l-287 -416l299 -432q21 -31 6 -60t-43.5 -29.5t-50.5 28.5l-274 407l-275 -411q-18 -27 -50 -22.5 t-44.5 29.5z" />
<glyph unicode="y" horiz-adv-x="1017" d="M93.5 999q3.5 23 18.5 34t32 13t35.5 -12.5t29.5 -42.5l307 -823l295 821q14 39 48 47t55 -18q13 -14 13 -34q0 -16 -7 -34l-433 -1175q-68 -185 -260 -185h-43q-38 0 -51.5 25t2.5 49.5t49 24.5h39q44 0 77 14t54.5 41.5t32.5 47.5t25 54l51 172l-363 930 q-10 28 -6.5 51z" />
<glyph unicode="z" horiz-adv-x="1050" d="M129 40q-7 16 -7 29q0 19 13 33l604 826h-549q-28 0 -42 24t-3 48t45 24h629q49 0 63 -32q5 -11 5 -21q0 -22 -17 -45l-608 -828h617q28 0 42 -24t3 -48t-45 -24h-693q-41 0 -57 38z" />
<glyph unicode="{" horiz-adv-x="702" d="M124 657.5q-1 45.5 46 65.5q147 56 147 178v367q0 141 75 217t216 76q36 0 49.5 -21.5t-1.5 -43t-48 -21.5q-104 0 -150 -50.5t-46 -156.5v-367q0 -85 -54 -149t-139 -88q84 -24 138.5 -90t54.5 -152v-367q0 -106 46 -156.5t150 -50.5q36 0 50.5 -21.5t0 -43t-50.5 -21.5 q-141 0 -216 76t-75 217v367q0 65 -40.5 112.5t-104.5 65.5q-47 12 -48 57.5z" />
<glyph unicode="|" horiz-adv-x="509" d="M205 -184v1689q0 37 25 52t50 0t25 -52v-1689q0 -36 -25 -50.5t-50 0t-25 50.5z" />
<glyph unicode="}" horiz-adv-x="704" d="M46.5 -173.5q14.5 21.5 49.5 21.5q104 0 150.5 50.5t46.5 156.5v367q0 86 54 152t138 90q-84 24 -138 88t-54 149v367q0 106 -46.5 156.5t-150.5 50.5q-31 0 -44 21.5t0 43t44 21.5q141 0 216 -76t75 -217v-367q0 -122 148 -178q32 -13 42.5 -39.5t-2 -51t-43.5 -32.5 q-64 -20 -104.5 -66.5t-40.5 -111.5v-367q0 -141 -75 -217t-216 -76q-35 0 -49.5 21.5t0 43z" />
<glyph unicode="~" horiz-adv-x="1269" d="M191.5 592.5q-5.5 14.5 2.5 34t29 35.5q97 77 213 77q51 0 106 -18t95.5 -40t94.5 -40t104 -18q77 0 151 49q30 20 51.5 16.5t34 -17t7 -36.5t-30.5 -43q-99 -82 -213 -82q-47 0 -103.5 19t-100 42.5t-98.5 42.5t-100 19q-82 0 -151 -53q-21 -16 -41 -18.5t-32.5 7 t-18 24z" />
<glyph unicode="&#xa1;" horiz-adv-x="481" d="M172 913q0 32 23 55t55 23t55 -23t23 -55t-23 -54.5t-55 -22.5t-55 22.5t-23 54.5zM195 -338v903q0 47 28 66.5t56 0t28 -66.5v-903q0 -43 -28 -61t-56 0t-28 61z" />
<glyph unicode="&#xa3;" horiz-adv-x="1183" d="M107.5 736q-15.5 23 0.5 46t56 23h110v235q0 194 102.5 304t278.5 110q143 0 237 -77t124 -214q8 -37 -13 -55.5t-48 -7t-35 48.5q-20 94 -86.5 152.5t-178.5 58.5q-278 0 -278 -320v-235h315q40 0 56 -23t0.5 -46t-54.5 -23h-317v-416q0 -151 -96 -193v-4h497 q112 0 169 60.5t57 158.5q0 29 15 45.5t33 16.5t33 -16.5t15 -45.5q0 -152 -88.5 -235.5t-233.5 -83.5h-616q-37 0 -52.5 26t-1.5 55.5t50 39.5q116 36 116 176v416h-112q-39 0 -54.5 23z" />
<glyph unicode="&#xa4;" d="M163 42q0 37 44 77l100 88q-112 128 -113 307t107 309l-92 80q-50 44 -40 85q8 30 39 31q37 1 73 -42l81 -94q123 103 285 103t285 -103l88 104q52 62 95 55q30 -4 31 -36q2 -41 -46 -84l-109 -99q111 -133 110.5 -309t-114.5 -307l98 -88q52 -46 43 -88q-7 -29 -40 -30 q-37 0 -74 44l-88 102q-121 -95 -280 -96t-279 96l-88 -102q-43 -51 -85 -41q-30 6 -31 38zM291 518q0 -159 100.5 -267t255.5 -108t256 108t101 267q0 157 -101 265t-256 108t-255.5 -108t-100.5 -265z" />
<glyph unicode="&#xa6;" horiz-adv-x="540" d="M221 -47v534q0 34 24 48t48 0t24 -48v-534q0 -33 -24 -46.5t-48 0t-24 46.5zM221 965v534q0 34 24 48t48 0t24 -48v-534q0 -32 -24 -45.5t-48 0t-24 45.5z" />
<glyph unicode="&#xa7;" horiz-adv-x="1085" d="M179 556q-24 96 17.5 186t139.5 147q-90 96 -90 203q0 126 90.5 207t220.5 81q125 0 213 -71.5t107 -192.5q5 -33 -15 -48.5t-45 -5.5t-33 40q-24 95 -77.5 141.5t-149.5 46.5q-89 0 -152 -54t-63 -138q0 -56 22.5 -97t69.5 -83l391 -338q84 -74 107.5 -170t-17.5 -186 t-137 -146q88 -94 88 -205q0 -121 -91.5 -204t-219.5 -83t-212 71t-107 196q-7 45 25 56q29 11 55 -18q12 -14 18 -36q24 -92 75 -136.5t146 -44.5q92 0 153.5 53t61.5 140q0 58 -22.5 98t-69.5 82l-391 338q-84 75 -108 171zM267.5 585.5q16.5 -72.5 80.5 -128.5l369 -322 q120 65 134.5 175t-87.5 200l-369 319q-76 -39 -110 -105t-17.5 -138.5z" />
<glyph unicode="&#xa8;" horiz-adv-x="593" d="M0 1343q0 44 31 75.5t75 31.5q43 0 74 -31.5t31 -75.5t-31 -75t-74 -31q-44 0 -75 31t-31 75zM383 1343q0 44 31 75.5t75 31.5q43 0 74 -31.5t31 -75.5t-31 -75t-74 -31q-44 0 -75 31t-31 75z" />
<glyph unicode="&#xa9;" horiz-adv-x="1802" d="M150 725q0 207 99 381t272 275.5t380 101.5q155 0 294.5 -60t239.5 -161.5t159 -241.5t59 -295q0 -156 -59 -296t-159 -241.5t-239.5 -161t-294.5 -59.5q-207 0 -380 101t-272 275t-99 382zM248 725q0 -137 50.5 -260t136.5 -212.5t207.5 -141.5t258.5 -52t258.5 52 t207.5 141t136.5 212t50.5 261q0 137 -50.5 260.5t-136.5 213t-207.5 142t-258.5 52.5t-259 -52.5t-208 -142t-136 -213t-50 -260.5zM547 721q0 116 41 208.5t125.5 148t199.5 55.5t201 -61t115 -169q8 -31 -13.5 -47t-50 -7.5t-39.5 36.5q-27 70 -81.5 109.5t-131.5 39.5 q-132 0 -196 -84.5t-64 -228.5q0 -141 65 -226t195 -85q78 0 133 37.5t78 105.5q13 34 42 42.5t48.5 -13.5t8.5 -62q-27 -99 -113.5 -154t-196.5 -55q-116 0 -200 55t-125 147t-41 208z" />
<glyph unicode="&#xaa;" horiz-adv-x="1003" d="M178 885q0 243 324 243h176v80q0 82 -50.5 123t-135.5 41q-81 0 -126.5 -26t-60.5 -86q-7 -30 -34 -37t-49 11t-15 50q22 91 97.5 134.5t187.5 43.5q129 0 209.5 -65t80.5 -189v-395q0 -11 4 -41t4 -47t-12.5 -32t-40.5 -15q-55 0 -59 102q-47 -58 -114.5 -89.5 t-141.5 -31.5q-111 0 -177.5 57.5t-66.5 168.5zM283 885q0 -65 40.5 -98t106.5 -33q79 0 146.5 37t101.5 106v145h-176q-61 0 -108 -14t-79 -50.5t-32 -92.5z" />
<glyph unicode="&#xab;" horiz-adv-x="1052" d="M133 610q-23 23 2 56l275 335q19 23 45 18.5t32.5 -27t-12.5 -50.5l-250 -305l267 -328q12 -17 14 -34.5t-5.5 -28.5t-19 -16.5t-27.5 1t-30 25.5zM475 610q-23 23 2 56l275 335q19 23 45 18.5t32.5 -27t-12.5 -50.5l-250 -305l267 -328q12 -17 14 -34.5t-5.5 -28.5 t-19 -16.5t-27.5 1t-30 25.5z" />
<glyph unicode="&#xac;" horiz-adv-x="1269" d="M141 594.5q-15 23.5 0 46.5t52 23h686q206 0 206 -197v-162q0 -36 -23 -50.5t-46 0t-23 50.5v160q0 56 -31.5 81t-82.5 25h-686q-37 0 -52 23.5z" />
<glyph unicode="&#xad;" horiz-adv-x="1048" d="M210.5 593.5q-13.5 24.5 0 49.5t45.5 25h535q33 0 46.5 -25t0 -49.5t-46.5 -24.5h-535q-32 0 -45.5 24.5z" />
<glyph unicode="&#xae;" horiz-adv-x="1802" d="M150 725q0 207 99 381t272 275.5t380 101.5q155 0 294.5 -60t239.5 -161.5t159 -241.5t59 -295q0 -156 -59 -296t-159 -241.5t-239.5 -161t-294.5 -59.5q-207 0 -380 101t-272 275t-99 382zM248 725q0 -137 50.5 -260t136.5 -212.5t207.5 -141.5t258.5 -52t258.5 52 t207.5 141t136.5 212t50.5 261q0 137 -50.5 260.5t-136.5 213t-207.5 142t-258.5 52.5t-259 -52.5t-208 -142t-136 -213t-50 -260.5zM653 385v686q0 25 21 43.5t45 18.5h215q125 0 196.5 -69t71.5 -185q0 -78 -39.5 -140t-115.5 -90l122 -266q12 -31 -17 -51q-30 -21 -60 0 q-16 11 -25 33l-119 264h-198v-244q0 -38 -24 -52.5t-48.5 1t-24.5 51.5zM750 727h182q86 0 129 45t43 109t-42 108.5t-128 44.5h-184v-307z" />
<glyph unicode="&#xaf;" horiz-adv-x="606" d="M14.5 1385q-13.5 23 0 46t46.5 23h486q36 0 50.5 -23t0 -46t-50.5 -23h-486q-33 0 -46.5 23z" />
<glyph unicode="&#xb0;" horiz-adv-x="976" d="M150 1141q0 142 97.5 241t241.5 99q145 0 241.5 -97.5t96.5 -242.5q0 -141 -99.5 -240.5t-238.5 -99.5q-141 0 -240 99.5t-99 240.5zM244 1141q0 -105 70.5 -177.5t174.5 -72.5q103 0 173.5 73t70.5 177q0 106 -69.5 178t-174.5 72q-103 0 -174 -73t-71 -177z" />
<glyph unicode="&#xb1;" horiz-adv-x="1167" d="M108 24q-13 24 0 48t44 24h847q32 0 45.5 -24t0 -48t-45.5 -24h-847q-31 0 -44 24zM146 739q-12 24 0 48t42 24h349v350q0 30 24 42t48 0t24 -42v-350h350q32 0 45.5 -24t0 -48t-45.5 -24h-350v-348q0 -32 -24 -45t-48 0.5t-24 44.5v348h-349q-30 0 -42 24z" />
<glyph unicode="&#xb2;" horiz-adv-x="841" d="M159 755.5q-6 36.5 31 67.5l289 264q44 41 67 77t23 79q0 63 -44.5 98t-110.5 35q-128 0 -158 -119q-6 -22 -19 -35.5t-28 -14.5t-28 5t-19.5 23t-1.5 39q24 90 88 141t166 51q112 0 183 -57.5t71 -165.5q0 -38 -12 -72t-38 -67t-45.5 -53t-56.5 -54l-209 -190h340 q25 0 38 -22t3 -44t-41 -22h-430q-52 0 -58 36.5z" />
<glyph unicode="&#xb3;" horiz-adv-x="860" d="M160 887q-11 41 18 58q27 17 54 -9q14 -15 22 -41q34 -119 178 -119q81 0 132.5 35t51.5 109q0 56 -40.5 90t-116.5 34q-36 0 -53.5 21.5t-2.5 43t56 21.5q139 0 139 117q0 64 -47 99.5t-115 35.5q-147 0 -174 -112q-11 -44 -46 -51q-31 -7 -45 18q-9 17 -3 41 q29 92 98.5 140t169.5 48q108 0 184 -57t76 -156q0 -54 -29.5 -102t-80.5 -64q125 -44 125 -174q0 -109 -80 -166t-199 -57q-96 0 -172.5 53t-99.5 144z" />
<glyph unicode="&#xb4;" horiz-adv-x="667" d="M118.5 1311q9.5 29 49.5 43l311 106q22 6 39.5 2.5t25 -16t8 -26.5t-11.5 -29t-34 -23l-311 -108q-39 -14 -62.5 4t-14 47z" />
<glyph unicode="&#xb6;" horiz-adv-x="1380" d="M154 1083q0 153 105 260t257 107h649q38 0 53 -24.5t-0.5 -49t-52.5 -24.5h-164v-1545q0 -31 -15.5 -49t-34.5 -18t-34.5 18t-15.5 49v1545h-285v-1545q0 -31 -15.5 -49t-34.5 -18t-34.5 18t-15.5 49v914q-149 0 -255.5 106.5t-106.5 255.5z" />
<glyph unicode="&#xb7;" horiz-adv-x="598" d="M184 629q0 58 28.5 85t88.5 27q59 0 86 -27t27 -85q0 -60 -27.5 -88.5t-85.5 -28.5q-60 0 -88.5 28.5t-28.5 88.5z" />
<glyph unicode="&#xb9;" horiz-adv-x="628" d="M209 1287q10 20 33 36l155 117q36 26 61 27.5t35.5 -12.5t10.5 -36v-667q0 -34 -24 -48t-48 0t-24 48v585l-123 -92q-41 -31 -68 -9q-24 19 -8 51z" />
<glyph unicode="&#xba;" horiz-adv-x="999" d="M164 1065q0 182 83 286.5t257 104.5q169 0 250.5 -102.5t81.5 -288.5q0 -196 -84 -296.5t-248 -100.5q-171 0 -255.5 97t-84.5 300zM279 1065q0 -147 56.5 -225t168.5 -78q113 0 165 74.5t52 228.5q0 297 -217 297q-62 0 -106.5 -23t-70 -64.5t-37 -93.5t-11.5 -116z" />
<glyph unicode="&#xbb;" horiz-adv-x="1052" d="M205 274.5q2 17.5 14 34.5l266 328l-249 305q-21 26 -12 50.5t32 27t45 -18.5l274 -335q25 -34 3 -56l-291 -354q-14 -19 -30 -25.5t-27.5 -1t-19 16.5t-5.5 28.5zM547 274.5q2 17.5 14 34.5l266 328l-249 305q-21 26 -12 50.5t32 27t45 -18.5l275 -335q25 -33 2 -56 l-291 -354q-14 -19 -30 -25.5t-27.5 -1t-19 16.5t-5.5 28.5z" />
<glyph unicode="&#xbc;" horiz-adv-x="1738" d="M209 1287q10 20 33 36l155 117q36 26 61 27.5t35.5 -12.5t10.5 -36v-667q0 -34 -24 -48t-48 0t-24 48v585l-123 -92q-41 -31 -68 -9q-24 19 -8 51zM336.5 20.5q-9.5 21.5 5.5 47.5l1001 1368q18 24 45 20.5t36.5 -25t-5.5 -47.5l-1001 -1368q-18 -24 -45 -20.5t-36.5 25z M970 204q-12 38 29 91l357 457q29 38 65.5 24t36.5 -63v-457h92q31 0 44 -22.5t0 -45t-44 -22.5h-92v-111q0 -35 -24 -49.5t-48 0t-24 49.5v111h-324q-56 0 -68 38zM1079 256h283v354z" />
<glyph unicode="&#xbd;" horiz-adv-x="1882" d="M209 1287q10 20 33 36l155 117q36 26 61 27.5t35.5 -12.5t10.5 -36v-667q0 -34 -24 -48t-48 0t-24 48v585l-123 -92q-41 -31 -68 -9q-24 19 -8 51zM336.5 20.5q-9.5 21.5 5.5 47.5l1001 1368q18 24 45 20.5t36.5 -25t-5.5 -47.5l-1001 -1368q-18 -24 -45 -20.5t-36.5 25z M1118 36.5q-6 36.5 31 67.5l289 265q44 41 67 76.5t23 78.5q0 63 -44.5 98t-111.5 35q-128 0 -158 -118q-9 -37 -36 -48t-47.5 8t-12.5 56q24 90 88 141.5t166 51.5q112 0 183 -58t71 -166q0 -38 -11.5 -72t-37.5 -66.5t-45.5 -52.5t-56.5 -54l-209 -191h340q25 0 38 -22 t3 -44t-41 -22h-430q-52 0 -58 36.5z" />
<glyph unicode="&#xbe;" horiz-adv-x="1824" d="M160 887q-11 41 18 58q27 17 54 -9q14 -15 22 -41q34 -119 178 -119q81 0 132.5 35t51.5 109q0 56 -40.5 90t-116.5 34q-29 0 -45.5 13.5t-16.5 29.5t16.5 29.5t45.5 13.5q139 0 139 117q0 64 -47 99.5t-115 35.5q-147 0 -174 -112q-11 -44 -46 -51q-31 -7 -45 18 q-9 17 -3 41q29 92 98.5 140t169.5 48q108 0 184 -57t76 -156q0 -54 -29.5 -102t-80.5 -64q125 -44 125 -174q0 -109 -80 -166t-199 -57q-96 0 -172.5 53t-99.5 144zM356.5 20.5q-9.5 21.5 5.5 47.5l1002 1368q18 24 45 20.5t36.5 -25t-5.5 -47.5l-1002 -1368 q-18 -24 -45 -20.5t-36.5 25zM970 204q-12 38 29 91l357 457q29 38 65.5 24t36.5 -63v-457h92q31 0 44 -22.5t0 -45t-44 -22.5h-92v-111q0 -35 -24 -49.5t-48 0t-24 49.5v111h-324q-56 0 -68 38zM1079 256h283v354z" />
<glyph unicode="&#xbf;" horiz-adv-x="993" d="M135 -51q0 110 50.5 188.5t144.5 138.5q97 60 124 112.5t27 170.5q0 40 24.5 56t48.5 0t24 -56q0 -100 -19.5 -161t-60.5 -105t-127 -103q-133 -89 -133 -237q0 -115 74 -181.5t194 -66.5q260 0 295 246q6 38 32 52t49 -1.5t21 -50.5q-13 -157 -121.5 -248.5 t-275.5 -91.5q-151 0 -261 94t-110 244zM453 866q0 32 22.5 55t54.5 23t55 -23t23 -55t-23 -55t-55 -23t-54.5 23t-22.5 55z" />
<glyph unicode="&#xc1;" horiz-adv-x="1245" d="M76 70l475 1253q10 30 41.5 42t62.5 0t41 -42l473 -1253q14 -32 -7.5 -54t-52.5 -18t-42 35l-129 348h-631l-129 -348q-12 -31 -42.5 -35.5t-51.5 17.5t-8 55zM344 481h557l-278 746zM411.5 1626q9.5 29 49.5 43l311 107q36 12 57.5 -5.5t13.5 -45.5t-44 -42l-312 -108 q-39 -14 -62 4t-13.5 47z" />
<glyph unicode="&#xc3;" horiz-adv-x="1245" d="M76 70l475 1253q10 30 41.5 42t62.5 0t41 -42l473 -1253q14 -32 -7.5 -54t-52.5 -18t-42 35l-129 348h-631l-129 -348q-12 -31 -42.5 -35.5t-51.5 17.5t-8 55zM317.5 1774q-14.5 25 0 50t49.5 25h503q34 0 48 -25t0 -50t-48 -25h-503q-35 0 -49.5 25zM344 481h557 l-278 746z" />
<glyph unicode="&#xc4;" horiz-adv-x="1245" d="M76 70l475 1253q10 30 41.5 42t62.5 0t41 -42l473 -1253q14 -32 -7.5 -54t-52.5 -18t-42 35l-129 348h-631l-129 -348q-12 -31 -42.5 -35.5t-51.5 17.5t-8 55zM317.5 1774q-14.5 25 0 50t49.5 25h503q34 0 48 -25t0 -50t-48 -25h-503q-35 0 -49.5 25zM344 481h557 l-278 746z" />
<glyph unicode="&#xc5;" horiz-adv-x="1245" d="M76 70l483 1273q-151 29 -151 209q0 211 215 211q213 0 213 -211q0 -92 -35.5 -143t-112.5 -63l481 -1276q14 -32 -7.5 -54t-52.5 -18t-42 35l-129 348h-631l-129 -348q-11 -31 -42 -35t-52.5 18t-7.5 54zM344 481h557l-278 746zM506 1552q0 -60 28.5 -88t88.5 -28 q114 0 114 116q0 58 -27.5 85.5t-86.5 27.5q-60 0 -88.5 -27.5t-28.5 -85.5z" />
<glyph unicode="&#xc9;" horiz-adv-x="1148" d="M205 47v1280q0 19 13.5 33t33.5 14h741q31 0 44 -24.5t0 -49t-44 -24.5h-676v-516h584q36 0 50.5 -24t0 -48t-50.5 -24h-584v-568h680q31 0 44 -24t0 -48t-44 -24h-745q-20 0 -33.5 13.5t-13.5 33.5zM405.5 1638q9.5 29 49.5 43l311 107q22 6 39.5 2.5t25 -16t8 -26.5 t-11.5 -29t-34 -23l-312 -109q-39 -14 -62 4t-13.5 47z" />
<glyph unicode="&#xcd;" horiz-adv-x="522" d="M67.5 1638q9.5 29 49.5 43l311 107q22 6 39.5 2.5t25 -16t8 -26.5t-11.5 -29t-34 -23l-312 -109q-39 -14 -62 4t-13.5 47zM205 63v1246q0 31 18 49t39 18t39 -18t18 -49v-1246q0 -31 -18 -49t-39 -18t-39 18t-18 49z" />
<glyph unicode="&#xcf;" horiz-adv-x="522" d="M205 63v1246q0 31 18 49t39 18t39 -18t18 -49v-1246q0 -31 -18 -49t-39 -18t-39 18t-18 49z" />
<glyph unicode="&#xd1;" horiz-adv-x="1423" d="M205 63v1242q0 32 26.5 52t59 17.5t49.5 -28.5l764 -1149v1114q1 25 12.5 42t27.5 21t32 0t27 -21t11 -42v-1237q0 -37 -24.5 -59t-56 -17t-50.5 37l-766 1149v-1121q0 -31 -17.5 -49t-38.5 -18t-38.5 18t-17.5 49zM430.5 1774q-13.5 23 0 46t46.5 23h486q36 0 50.5 -23 t0 -46t-50.5 -23h-486q-33 0 -46.5 23z" />
<glyph unicode="&#xd3;" d="M119 694q0 158 30 283.5t93.5 221.5t169.5 148t250 52q530 0 530 -705q0 -362 -131.5 -537t-398.5 -175q-278 0 -410.5 172.5t-132.5 539.5zM236 694q0 -308 105 -460t321 -152q215 0 314 148.5t99 463.5q0 104 -11 189.5t-40 164.5t-74.5 132.5t-118.5 85.5t-169 32 t-170 -32t-122 -86.5t-78.5 -133t-43 -164.5t-12.5 -188zM433.5 1638q9.5 29 49.5 43l312 107q36 12 57 -5.5t13 -45t-44 -41.5l-311 -109q-39 -14 -62.5 4t-14 47z" />
<glyph unicode="&#xd5;" d="M119 694q0 158 30 283.5t93.5 221.5t169.5 148t250 52q530 0 530 -705q0 -362 -131.5 -537t-398.5 -175q-278 0 -410.5 172.5t-132.5 539.5zM236 694q0 -308 105 -460t321 -152q215 0 314 148.5t99 463.5q0 104 -11 189.5t-40 164.5t-74.5 132.5t-118.5 85.5t-169 32 t-170 -32t-122 -86.5t-78.5 -133t-43 -164.5t-12.5 -188zM347.5 1774q-14.5 25 0 50t49.5 25h504q34 0 48 -25t0 -50t-48 -25h-504q-35 0 -49.5 25z" />
<glyph unicode="&#xd6;" d="M119 694q0 158 30 283.5t93.5 221.5t169.5 148t250 52q530 0 530 -705q0 -362 -131.5 -537t-398.5 -175q-278 0 -410.5 172.5t-132.5 539.5zM236 694q0 -308 105 -460t321 -152q215 0 314 148.5t99 463.5q0 104 -11 189.5t-40 164.5t-74.5 132.5t-118.5 85.5t-169 32 t-170 -32t-122 -86.5t-78.5 -133t-43 -164.5t-12.5 -188zM347.5 1774q-14.5 25 0 50t49.5 25h504q34 0 48 -25t0 -50t-48 -25h-504q-35 0 -49.5 25z" />
<glyph unicode="&#xd7;" horiz-adv-x="1177" d="M124 58q4 14 15 26l389 428l-389 426q-20 24 -13.5 50.5t28 31.5t43.5 -14l393 -431l389 431q30 32 56 11q25 -19 16 -53q-3 -14 -13 -26l-389 -428l389 -426q28 -30 10 -63q-15 -27 -42 -21q-15 4 -27 16l-391 430l-391 -430q-28 -30 -56 -9q-25 18 -17 51z" />
<glyph unicode="&#xd8;" d="M119 694q0 158 30 283.5t93.5 221.5t169.5 148t250 52q172 0 288 -78l62 119q16 28 45 27t40.5 -22.5t-1.5 -49.5l-76 -129q172 -172 172 -572q0 -362 -131.5 -537t-398.5 -175q-191 0 -306 77l-67 -120q-16 -28 -45 -27t-40.5 22.5t1.5 49.5l80 135q-166 172 -166 575z M236 694q0 -316 110 -465l551 1000q-87 69 -235 69q-96 0 -170 -32t-122 -86.5t-78.5 -133t-43 -164.5t-12.5 -188zM414 164q94 -82 248 -82q215 0 314 148.5t99 463.5q0 326 -106 471z" />
<glyph unicode="&#xda;" horiz-adv-x="1331" d="M195 442v877q0 34 17 53.5t37 19.5t37 -19.5t17 -53.5v-875q0 -169 94.5 -268.5t264.5 -99.5q173 0 270.5 97.5t97.5 270.5v877q0 44 27 62.5t53.5 0t26.5 -62.5v-879q0 -221 -126 -341.5t-349 -120.5q-217 0 -342 123t-125 339zM437.5 1638q9.5 29 49.5 43l312 107 q36 12 57 -5.5t13 -45t-44 -41.5l-311 -109q-39 -14 -62.5 4t-14 47z" />
<glyph unicode="&#xdc;" horiz-adv-x="1331" d="M195 442v877q0 34 17 53.5t37 19.5t37 -19.5t17 -53.5v-875q0 -169 94.5 -268.5t264.5 -99.5q173 0 270.5 97.5t97.5 270.5v877q0 44 27 62.5t53.5 0t26.5 -62.5v-879q0 -221 -126 -341.5t-349 -120.5q-217 0 -342 123t-125 339zM381.5 1774q-13.5 23 0 46t46.5 23h485 q36 0 50.5 -23t0 -46t-50.5 -23h-485q-33 0 -46.5 23z" />
<glyph unicode="&#xe1;" horiz-adv-x="1089" d="M113 268q0 170 108 243t318 73h254v125q0 116 -75 175.5t-194 59.5q-109 0 -173.5 -38.5t-98.5 -121.5q-15 -35 -43 -44t-47.5 11.5t-11.5 57.5q28 118 126 174.5t248 56.5q171 0 275 -84.5t104 -246.5v-539q0 -19 4 -47.5t6 -47.5t0 -37.5t-15 -28t-38 -9.5 q-22 0 -36.5 14t-20.5 41t-8 51t-2 60q-63 -92 -158.5 -141.5t-206.5 -49.5q-145 0 -230 74.5t-85 218.5zM225 268q0 -94 61 -143t154 -49q113 0 209 54.5t144 152.5v215h-254q-62 0 -116 -12.5t-99.5 -39t-72 -72t-26.5 -106.5zM339.5 1311q9.5 29 49.5 43l311 106 q22 6 39.5 2.5t25 -16t8 -26.5t-11.5 -29t-34 -23l-311 -108q-39 -14 -62.5 4t-14 47z" />
<glyph unicode="&#xe3;" horiz-adv-x="987" d="M113 268q0 170 108 243t318 73h254v125q0 116 -75 175.5t-194 59.5q-109 0 -173.5 -38.5t-98.5 -121.5q-15 -35 -43 -44t-47.5 11.5t-11.5 57.5q28 118 126 174.5t248 56.5q171 0 275 -84.5t104 -246.5v-539q0 -19 4 -47.5t6 -47.5t0 -37.5t-15 -28t-38 -9.5 q-22 0 -36.5 14t-20.5 41t-8 51t-2 60q-63 -92 -158.5 -141.5t-206.5 -49.5q-145 0 -230 74.5t-85 218.5zM225 268q0 -94 61 -143t154 -49q113 0 209 54.5t144 152.5v215h-254q-62 0 -116 -12.5t-99.5 -39t-72 -72t-26.5 -106.5zM231.5 1385q-14.5 25 0 50t49.5 25h503 q34 0 48 -25t0 -50t-48 -25h-503q-35 0 -49.5 25z" />
<glyph unicode="&#xe4;" horiz-adv-x="1069" d="M113 268q0 170 108 243t318 73h254v125q0 116 -75 175.5t-194 59.5q-109 0 -173.5 -38.5t-98.5 -121.5q-15 -35 -43 -44t-47.5 11.5t-11.5 57.5q28 118 126 174.5t248 56.5q171 0 275 -84.5t104 -246.5v-539q0 -19 4 -47.5t6 -47.5t0 -37.5t-15 -28t-38 -9.5 q-22 0 -36.5 14t-20.5 41t-8 51t-2 60q-63 -92 -158.5 -141.5t-206.5 -49.5q-145 0 -230 74.5t-85 218.5zM225 268q0 -94 61 -143t154 -49q113 0 209 54.5t144 152.5v215h-254q-62 0 -116 -12.5t-99.5 -39t-72 -72t-26.5 -106.5zM231.5 1385q-14.5 25 0 50t49.5 25h503 q34 0 48 -25t0 -50t-48 -25h-503q-35 0 -49.5 25z" />
<glyph unicode="&#xe5;" horiz-adv-x="1069" d="M113 268q0 170 108 243t318 73h254v125q0 116 -75 175.5t-194 59.5q-109 0 -173.5 -38.5t-98.5 -121.5q-15 -35 -43 -44t-47.5 11.5t-11.5 57.5q28 118 126 174.5t248 56.5q171 0 275 -84.5t104 -246.5v-539q0 -19 4 -47.5t6 -47.5t0 -37.5t-15 -28t-38 -9.5 q-22 0 -36.5 14t-20.5 41t-8 51t-2 60q-63 -92 -158.5 -141.5t-206.5 -49.5q-145 0 -230 74.5t-85 218.5zM225 268q0 -94 61 -143t154 -49q113 0 209 54.5t144 152.5v215h-254q-62 0 -116 -12.5t-99.5 -39t-72 -72t-26.5 -106.5zM324 1485q0 106 51.5 158.5t163.5 52.5 q107 0 159 -52t52 -159q0 -215 -213 -215t-213 215zM422 1485q0 -60 28.5 -88.5t88.5 -28.5q58 0 85 28.5t27 88.5q0 59 -26.5 85.5t-85.5 26.5q-60 0 -88.5 -27t-28.5 -85z" />
<glyph unicode="&#xe6;" horiz-adv-x="1751" d="M123 272q0 179 104.5 261.5t321.5 82.5h254v95q0 116 -74.5 174.5t-193.5 58.5q-112 0 -178.5 -38.5t-90.5 -123.5q-7 -29 -36 -37.5t-51.5 10t-14.5 54.5q30 118 128 174.5t247 56.5q123 0 214 -45.5t132 -136.5q118 184 340 184q199 0 301 -123t102 -333q0 -50 -16 -63 t-58 -13l-632 6q0 -124 32 -220t105.5 -157t179.5 -61q168 0 270 80q24 18 48 7.5t27 -33t-17 -44.5q-122 -106 -328 -106q-129 0 -228.5 66.5t-156.5 176.5q-77 -112 -182.5 -178.5t-233.5 -66.5q-146 0 -230.5 74t-84.5 218zM236 268q0 -92 60.5 -140t154.5 -48 q112 0 208 53.5t144 149.5v235h-256q-177 0 -244 -58.5t-67 -191.5zM924 612l592 -6q0 162 -75.5 251t-215.5 89q-141 0 -221 -94t-80 -240z" />
<glyph unicode="&#xe9;" horiz-adv-x="1052" d="M102 532q0 133 51 247.5t151.5 187.5t230.5 73q199 0 301 -123t102 -333q0 -26 -6 -42t-19.5 -23t-26 -9t-34.5 -2h-637q0 -121 37 -218.5t114 -157.5t183 -60q159 0 270 80q21 15 38.5 11t28 -15.5t9 -30.5t-17.5 -35q-123 -107 -328 -107q-203 0 -325 150.5t-122 406.5 zM221 604h604q0 162 -75 251t-215 89q-129 0 -215 -101t-99 -239zM315.5 1311q9.5 29 49.5 43l311 106q36 12 57 -5.5t13 -45t-44 -41.5l-311 -108q-39 -14 -62 4t-13.5 47z" />
<glyph unicode="&#xea;" horiz-adv-x="1040" d="M102 532q0 133 51 247.5t151.5 187.5t230.5 73q199 0 301 -123t102 -333q0 -26 -6 -42t-19.5 -23t-26 -9t-34.5 -2h-637q0 -121 37 -218.5t114 -157.5t183 -60q159 0 270 80q21 15 38.5 11t28 -15.5t9 -30.5t-17.5 -35q-123 -107 -328 -107q-203 0 -325 150.5t-122 406.5 zM221 604h604q0 162 -75 251t-215 89q-129 0 -215 -101t-99 -239zM235.5 1385q-14.5 25 0 50t49.5 25h503q34 0 48 -25t0 -50t-48 -25h-503q-35 0 -49.5 25z" />
<glyph unicode="&#xeb;" horiz-adv-x="1040" d="M102 532q0 133 51 247.5t151.5 187.5t230.5 73q199 0 301 -123t102 -333q0 -26 -6 -42t-19.5 -23t-26 -9t-34.5 -2h-637q0 -121 37 -218.5t114 -157.5t183 -60q159 0 270 80q21 15 38.5 11t28 -15.5t9 -30.5t-17.5 -35q-123 -107 -328 -107q-203 0 -325 150.5t-122 406.5 zM221 604h604q0 162 -75 251t-215 89q-129 0 -215 -101t-99 -239zM235.5 1385q-14.5 25 0 50t49.5 25h503q34 0 48 -25t0 -50t-48 -25h-503q-35 0 -49.5 25z" />
<glyph unicode="&#xed;" horiz-adv-x="538" d="M59.5 1311q9.5 29 49.5 43l311 106q36 12 57 -5.5t13 -45t-44 -41.5l-311 -108q-39 -14 -62 4t-13.5 47zM205 74v903q0 42 27 59.5t54 0.5t27 -60v-903q0 -48 -27 -67.5t-54 0.5t-27 67z" />
<glyph unicode="&#xef;" horiz-adv-x="532" d="M-41.5 1385q-14.5 25 0 50t49.5 25h504q34 0 48 -25t0 -50t-48 -25h-504q-35 0 -49.5 25zM205 74v903q0 42 27 59.5t54 0.5t27 -60v-903q0 -48 -27 -67.5t-54 0.5t-27 67z" />
<glyph unicode="&#xf1;" horiz-adv-x="1171" d="M205 57v914q0 36 24.5 51t50 1t27.5 -48l8 -131q51 98 136 148t196 50q183 0 260.5 -108.5t77.5 -310.5v-566q0 -26 -18 -41t-39.5 -15t-39.5 15t-18 41v566q0 158 -54.5 240.5t-194.5 82.5q-228 0 -302 -231v-658q0 -35 -28.5 -49.5t-57 0t-28.5 49.5zM290.5 1385 q-14.5 25 0 50t49.5 25h504q34 0 48 -25t0 -50t-48 -25h-504q-35 0 -49.5 25z" />
<glyph unicode="&#xf3;" horiz-adv-x="1083" d="M92 510q0 117 26 212t79 168t142 113.5t208 40.5q116 0 203 -40.5t139 -113.5t77 -168t25 -212q0 -262 -111.5 -398.5t-332.5 -136.5q-224 0 -339.5 139.5t-115.5 395.5zM209 510q0 -208 86 -325t252 -117q165 0 247.5 116t82.5 326q0 70 -10.5 132.5t-34.5 120t-61 99 t-94.5 66t-129.5 24.5q-87 0 -153.5 -37t-106 -100t-59 -140.5t-19.5 -164.5zM331.5 1311q9.5 29 49.5 43l311 106q22 6 39.5 2.5t25 -16t8 -26.5t-11.5 -29t-34 -23l-311 -108q-39 -14 -62.5 4t-14 47z" />
<glyph unicode="&#xf5;" horiz-adv-x="1083" d="M92 510q0 117 26 212t79 168t142 113.5t208 40.5q116 0 203 -40.5t139 -113.5t77 -168t25 -212q0 -262 -111.5 -398.5t-332.5 -136.5q-224 0 -339.5 139.5t-115.5 395.5zM209 510q0 -208 86 -325t252 -117q165 0 247.5 116t82.5 326q0 70 -10.5 132.5t-34.5 120t-61 99 t-94.5 66t-129.5 24.5q-87 0 -153.5 -37t-106 -100t-59 -140.5t-19.5 -164.5zM242.5 1385q-13.5 23 0 46t46.5 23h485q36 0 50.5 -23t0 -46t-50.5 -23h-485q-33 0 -46.5 23z" />
<glyph unicode="&#xf6;" horiz-adv-x="1083" d="M92 510q0 117 26 212t79 168t142 113.5t208 40.5q116 0 203 -40.5t139 -113.5t77 -168t25 -212q0 -262 -111.5 -398.5t-332.5 -136.5q-224 0 -339.5 139.5t-115.5 395.5zM209 510q0 -208 86 -325t252 -117q165 0 247.5 116t82.5 326q0 70 -10.5 132.5t-34.5 120t-61 99 t-94.5 66t-129.5 24.5q-87 0 -153.5 -37t-106 -100t-59 -140.5t-19.5 -164.5zM264.5 1385q-13.5 23 0 46t46.5 23h486q36 0 50.5 -23t0 -46t-50.5 -23h-486q-33 0 -46.5 23z" />
<glyph unicode="&#xf7;" horiz-adv-x="1337" d="M178.5 587.5q-13.5 24.5 0 49.5t46.5 25h848q37 0 52 -25t0 -49.5t-52 -24.5h-848q-33 0 -46.5 24.5zM551 205q0 55 26.5 81.5t81.5 26.5q109 0 109 -108q0 -109 -109 -109q-108 0 -108 109zM551 1034q0 109 108 109q109 0 109 -109q0 -108 -109 -108q-55 0 -81.5 26 t-26.5 82z" />
<glyph unicode="&#xf8;" horiz-adv-x="1089" d="M92 512q0 251 111.5 390.5t345.5 139.5q128 0 213 -43l69 125q18 32 48.5 34t42 -20.5t-3.5 -56.5l-74 -133q153 -130 153 -436q0 -273 -112 -405t-336 -132q-119 0 -219 41l-68 -116q-16 -25 -37 -32t-34.5 4t-19 30t10.5 47l66 117q-156 129 -156 446zM209 512 q0 -228 92 -346l416 754q-71 41 -168 41q-86 0 -153 -38.5t-107 -103t-60 -143t-20 -164.5zM375 102q68 -45 174 -45q171 0 251.5 114t80.5 341q0 230 -88 342z" />
<glyph unicode="&#xfa;" horiz-adv-x="1112" d="M164 422v543q0 47 28 66.5t56 0t28 -66.5v-539q0 -64 4.5 -111t19 -94.5t39.5 -77.5t68 -48.5t103 -18.5q129 0 226.5 78.5t97.5 197.5v613q0 36 18 56.5t39 20.5t39 -20.5t18 -56.5v-906q0 -37 -25 -53t-51 -2t-28 51l-6 111q-102 -186 -328 -186q-346 0 -346 442z M374.5 1311q9.5 29 49.5 43l311 106q22 6 39.5 2.5t25 -16t8 -26.5t-11.5 -29t-34 -23l-311 -108q-39 -14 -62.5 4t-14 47z" />
<glyph unicode="&#xfc;" horiz-adv-x="1112" d="M164 422v543q0 47 28 66.5t56 0t28 -66.5v-539q0 -64 4.5 -111t19 -94.5t39.5 -77.5t68 -48.5t103 -18.5q129 0 226.5 78.5t97.5 197.5v613q0 36 18 56.5t39 20.5t39 -20.5t18 -56.5v-906q0 -37 -25 -53t-51 -2t-28 51l-6 111q-102 -186 -328 -186q-346 0 -346 442z M263.5 1385q-14.5 25 0 50t49.5 25h504q34 0 48 -25t0 -50t-48 -25h-504q-35 0 -49.5 25z" />
<glyph unicode="&#x2c6;" horiz-adv-x="706" d="M78.5 1172.5q2.5 16.5 15.5 31.5l225 262q18 18 35 18t31 -18l225 -260q23 -27 15 -52t-31.5 -27.5t-46.5 18.5l-195 229l-194 -229q-13 -15 -29 -19t-27 2.5t-18.5 17t-5 27z" />
<glyph unicode="&#x2dc;" horiz-adv-x="737" d="M63.5 1385q-14.5 25 0 50t49.5 25h503q34 0 48 -25t0 -50t-48 -25h-503q-35 0 -49.5 25z" />
<glyph unicode="&#x2000;" horiz-adv-x="924" />
<glyph unicode="&#x2001;" horiz-adv-x="1849" />
<glyph unicode="&#x2002;" horiz-adv-x="924" />
<glyph unicode="&#x2003;" horiz-adv-x="1849" />
<glyph unicode="&#x2004;" horiz-adv-x="616" />
<glyph unicode="&#x2005;" horiz-adv-x="462" />
<glyph unicode="&#x2006;" horiz-adv-x="308" />
<glyph unicode="&#x2007;" horiz-adv-x="308" />
<glyph unicode="&#x2008;" horiz-adv-x="231" />
<glyph unicode="&#x2009;" horiz-adv-x="369" />
<glyph unicode="&#x200a;" horiz-adv-x="102" />
<glyph unicode="&#x2010;" horiz-adv-x="1052" d="M210 593.5q-14 24.5 0 49.5t48 25h535q35 0 49.5 -25t0 -49.5t-49.5 -24.5h-535q-34 0 -48 24.5z" />
<glyph unicode="&#x2011;" horiz-adv-x="1052" d="M210 593.5q-14 24.5 0 49.5t48 25h535q35 0 49.5 -25t0 -49.5t-49.5 -24.5h-535q-34 0 -48 24.5z" />
<glyph unicode="&#x2012;" horiz-adv-x="1052" d="M210 593.5q-14 24.5 0 49.5t48 25h535q35 0 49.5 -25t0 -49.5t-49.5 -24.5h-535q-34 0 -48 24.5z" />
<glyph unicode="&#x2013;" horiz-adv-x="1353" d="M210 593.5q-12 24.5 0 49.5t42 25h848q32 0 45 -25t-0.5 -49.5t-44.5 -24.5h-848q-30 0 -42 24.5z" />
<glyph unicode="&#x2014;" horiz-adv-x="2347" d="M210 593.5q-12 24.5 0 49.5t42 25h1841q32 0 45 -25t-0.5 -49.5t-44.5 -24.5h-1841q-30 0 -42 24.5z" />
<glyph unicode="&#x2018;" horiz-adv-x="501" d="M195 1100v323q0 40 28 56t56 0t28 -56v-323q0 -35 -28 -49.5t-56 0t-28 49.5z" />
<glyph unicode="&#x2019;" horiz-adv-x="501" d="M195 1100v323q0 35 28 49.5t56 0t28 -49.5v-323q0 -35 -28 -49.5t-56 0t-28 49.5z" />
<glyph unicode="&#x201a;" horiz-adv-x="497" d="M141 -190l84 323q9 34 40 41t55 -14.5t16 -55.5l-84 -323q-9 -34 -40 -40.5t-55 14.5t-16 55z" />
<glyph unicode="&#x201c;" horiz-adv-x="804" d="M225 1100v323q0 40 28.5 56t56.5 0t28 -56v-323q0 -26 -17.5 -41t-39 -15t-39 15t-17.5 41zM467 1100v323q0 40 28.5 56t56.5 0t28 -56v-323q0 -26 -17.5 -41t-39 -15t-39 15t-17.5 41z" />
<glyph unicode="&#x201d;" horiz-adv-x="804" d="M225 1100v323q0 40 28.5 56t56.5 0t28 -56v-323q0 -26 -17.5 -41t-39 -15t-39 15t-17.5 41zM467 1100v323q0 40 28.5 56t56.5 0t28 -56v-323q0 -26 -17.5 -41t-39 -15t-39 15t-17.5 41z" />
<glyph unicode="&#x201e;" horiz-adv-x="821" d="M455 -190l84 323q8 34 39.5 40.5t55.5 -14.5t15 -55l-84 -323q-9 -34 -39.5 -40.5t-55 14.5t-15.5 55z" />
<glyph unicode="&#x2022;" horiz-adv-x="862" d="M195 649q0 98 55.5 154.5t159.5 56.5q100 0 155.5 -55.5t55.5 -155.5t-56.5 -157.5t-156.5 -57.5t-156.5 57.5t-56.5 157.5z" />
<glyph unicode="&#x2026;" horiz-adv-x="1581" d="M172 78q0 32 23 55t55 23t55 -23t23 -55t-23 -55t-55 -23t-55 23t-23 55zM711 78q0 32 22.5 55t54.5 23t55 -23t23 -55t-23 -55t-55 -23t-54.5 23t-22.5 55zM1264 78q0 32 22.5 55t54.5 23t55 -23t23 -55t-23 -55t-55 -23t-54.5 23t-22.5 55z" />
<glyph unicode="&#x202f;" horiz-adv-x="369" />
<glyph unicode="&#x2039;" horiz-adv-x="645" d="M104 596q-26 26 2 55l338 336q27 27 52.5 20.5t28.5 -32t-15 -47.5l-307 -305l327 -328q15 -15 19 -32t-2 -29t-17 -19.5t-28 -3.5t-33 20z" />
<glyph unicode="&#x203a;" horiz-adv-x="645" d="M84 262q5 17 20 33l328 328l-307 305q-26 26 -19.5 51.5t32 28t52.5 -20.5l338 -336q24 -33 2 -55l-356 -354q-39 -39 -71 -23q-26 12 -19 43z" />
<glyph unicode="&#x205f;" horiz-adv-x="462" />
<glyph unicode="&#x20ac;" horiz-adv-x="1214" d="M88.5 547.5q-13.5 21.5 0 43t46.5 21.5h109q-2 15 -2 100.5t2 100.5h-101q-37 0 -52 21.5t0.5 43t53.5 21.5h107q18 159 89.5 283t195.5 197t282 73q164 0 271 -55q32 -17 37.5 -44t-16 -42t-58.5 -2q-133 45 -234 45q-197 0 -313.5 -122t-143.5 -333h531q36 0 51 -21.5 t0.5 -43t-51.5 -21.5h-537q-2 -17 -2 -101.5t2 -99.5h430q29 0 43 -21.5t1 -43t-48 -21.5h-420q13 -100 46 -181t88 -143t137.5 -96t185.5 -34q151 0 230 43q54 29 82 7q24 -18 3 -51q-15 -25 -51 -44q-100 -54 -264 -54q-246 0 -386.5 146.5t-180.5 406.5h-117 q-33 0 -46.5 21.5z" />
<glyph unicode="&#x2122;" horiz-adv-x="4384" d="M111 1210q-18 64 3 116.5t65 75t93.5 24t94 -34.5t61.5 -101l150 -567l182 575q14 47 47 78t73.5 39.5t80.5 1.5t72 -36.5t44 -73.5l201 -602l149 583q14 48 41.5 81t60.5 45t69.5 12t67 -17.5t54 -44t30 -67.5t-4.5 -87l-285 -1108q-17 -65 -63.5 -101t-97 -37t-96.5 31 t-62 91l-213 651l-203 -647q-21 -61 -69.5 -93.5t-98.5 -31.5t-94.5 35t-59.5 94zM172 1223l291 -1114q16 -49 57 -68t82.5 0t59.5 68l231 729l-41 166q-6 22 3.5 35.5t24 9t21.5 -24.5l301 -918q13 -40 41.5 -61.5t58.5 -20.5t58 26t41 69l287 1104q9 40 -4.5 73 t-40.5 47.5t-57 16t-57 -21t-38 -64.5l-221 -860q-6 -19 -19 -23.5t-23 6t-7 27.5l26 166l-231 692q-10 37 -38.5 57t-60 20t-60 -20t-38.5 -57l-266 -858q-3 -12 -10.5 -18.5t-15.5 -6.5t-15 4t-10 14t0 23l39 174l-174 664q-10 41 -36.5 63.5t-56 21t-56.5 -15.5 t-40.5 -48t-5.5 -76zM1679 532q0 155 72.5 286.5t197 207.5t271.5 76q148 0 272.5 -63t197.5 -175.5t73 -249.5q0 -106 -71 -174.5t-193 -68.5h-426q39 -44 70 -58t83 -14q32 0 87 10t75 10q67 0 116.5 -48t49.5 -115q0 -93 -76.5 -141t-257.5 -48q-141 0 -266.5 79 t-200 210t-74.5 276zM1743 532q0 -97 39 -189.5t104 -160.5t153 -109.5t181 -41.5q42 0 70.5 1t62.5 5t56 12t42 21t29.5 34t9.5 48q0 40 -30.5 71t-71.5 31q-22 0 -68.5 -9t-93.5 -9q-111 0 -189.5 82.5t-78.5 213.5q0 71 22.5 129t60.5 93.5t85 58t97 22.5t96 -14 t83.5 -49.5t57.5 -85.5q8 -19 0 -34t-29 -15h-395q-36 -105 0 -203h463q91 0 146.5 48.5t55.5 131.5q0 115 -64.5 212.5t-175.5 154.5t-241 57t-240 -68t-173.5 -184.5t-63.5 -253.5zM2073 698h299q-25 47 -81 64t-117.5 0t-100.5 -64zM2841 135v1122q0 53 24.5 91.5t61 56 t79 17.5t79 -17.5t61 -56t24.5 -91.5v-1122q0 -53 -24.5 -91.5t-61 -56t-79 -17.5t-79 17.5t-61 56t-24.5 91.5zM2902 135q0 -40 21.5 -66.5t52 -32t60.5 1t51.5 33t21.5 64.5v1122q0 49 -32.5 76.5t-71 27.5t-71 -27.5t-32.5 -76.5v-1122zM3258 559q0 145 69 269t186.5 196 t254.5 72q105 0 183 -33v199q0 45 18.5 80.5t47.5 53.5t64.5 26.5t71 0t64.5 -26.5t47 -53.5t18 -80.5v-1129q-1 -65 -40.5 -107t-90 -51t-103 12.5t-77.5 71.5q-93 -43 -203 -43q-137 0 -254.5 73t-186.5 198t-69 272zM3324 559q0 -199 130.5 -340t313.5 -141 q186 0 318.5 141t132.5 340v703q0 48 -32.5 75t-71 27t-71 -27t-32.5 -75v-703q0 -133 -68.5 -202.5t-175.5 -69.5q-98 0 -167.5 79.5t-69.5 192.5q0 111 69.5 190.5t167.5 79.5q112 0 183 -94v260q-90 41 -183 41q-120 0 -222.5 -64t-162 -174t-59.5 -239zM3592 559 q0 -87 51.5 -149t124.5 -62q78 0 130.5 56.5t52.5 154.5q0 88 -54 146.5t-129 58.5q-74 0 -125 -59.5t-51 -145.5zM4020 86q24 -48 73 -59.5t89.5 18.5t40.5 88v207q-33 -99 -82 -156.5t-121 -97.5z" />
<glyph unicode="&#x25fc;" horiz-adv-x="1044" d="M0 0v1044h1044v-1044h-1044z" />
</font>
</defs>
</svg>
